<mxfile host="65bd71144e" modified="2023-07-02T04:25:29.631Z" agent="Mozilla/5.0 (X11; Linux x86_64) AppleWebKit/537.36 (KHTML, like Gecko) Code-Insiders/1.79.0-insider Chrome/108.0.5359.215 Electron/22.5.3 Safari/537.36" version="21.5.2" etag="EXja6Ldc5E6UbW7SV2MH" type="embed">
    <diagram id="K7M3HRoWgAVKcHkSSJoV" name="SKU">
        <mxGraphModel dx="4666" dy="2681" grid="1" gridSize="10" guides="1" tooltips="1" connect="1" arrows="1" fold="1" page="1" pageScale="1" pageWidth="1654" pageHeight="1169" math="0" shadow="0">
            <root>
                <mxCell id="0"/>
                <mxCell id="1" parent="0"/>
                <mxCell id="2" value="SKU A" style="rounded=1;whiteSpace=wrap;html=1;fillColor=#d5e8d4;strokeColor=#82b366;fontSize=30;fontStyle=1" parent="1" vertex="1">
                    <mxGeometry x="177" y="-285" width="230" height="160" as="geometry"/>
                </mxCell>
                <mxCell id="3" value="SKU B" style="ellipse;whiteSpace=wrap;html=1;fillColor=#dae8fc;strokeColor=#6c8ebf;fontSize=30;fontStyle=1" parent="1" vertex="1">
                    <mxGeometry x="709" y="-285" width="250" height="160" as="geometry"/>
                </mxCell>
                <mxCell id="4" value="SKU C" style="rhombus;whiteSpace=wrap;html=1;fillColor=#f8cecc;strokeColor=#b85450;fontSize=30;fontStyle=1" parent="1" vertex="1">
                    <mxGeometry x="1287" y="-290" width="190" height="170" as="geometry"/>
                </mxCell>
                <mxCell id="5" value="AWS" style="rounded=1;whiteSpace=wrap;html=1;fontSize=30;fillColor=#e1d5e7;strokeColor=#9673a6;fontStyle=1" parent="1" vertex="1">
                    <mxGeometry x="120" y="1000" width="520" height="120" as="geometry"/>
                </mxCell>
                <mxCell id="6" value="GCP" style="rounded=1;whiteSpace=wrap;html=1;fontSize=30;fillColor=#e1d5e7;strokeColor=#9673a6;fontStyle=1" parent="1" vertex="1">
                    <mxGeometry x="1085" y="1000" width="510" height="120" as="geometry"/>
                </mxCell>
                <mxCell id="8" value="Cilium" style="rounded=0;whiteSpace=wrap;html=1;fontSize=30;fillColor=#fff2cc;strokeColor=#d6b656;fontStyle=1" parent="1" vertex="1">
                    <mxGeometry x="120" y="800" width="200" height="120" as="geometry"/>
                </mxCell>
                <mxCell id="9" value="Flannel" style="rounded=0;whiteSpace=wrap;html=1;fontSize=30;fillColor=#fff2cc;strokeColor=#d6b656;fontStyle=1" parent="1" vertex="1">
                    <mxGeometry x="440" y="800" width="200" height="120" as="geometry"/>
                </mxCell>
                <mxCell id="10" value="Antrea" style="rounded=0;whiteSpace=wrap;html=1;fontSize=30;fillColor=#fff2cc;strokeColor=#d6b656;fontStyle=1" parent="1" vertex="1">
                    <mxGeometry x="752" y="800" width="200" height="120" as="geometry"/>
                </mxCell>
                <mxCell id="11" value="Calico" style="rounded=0;whiteSpace=wrap;html=1;fontSize=30;fillColor=#fff2cc;strokeColor=#d6b656;fontStyle=1" parent="1" vertex="1">
                    <mxGeometry x="1080" y="800" width="200" height="120" as="geometry"/>
                </mxCell>
                <mxCell id="13" value="containerd" style="ellipse;whiteSpace=wrap;html=1;fontSize=30;fillColor=#e1d5e7;strokeColor=#9673a6;fontStyle=1" parent="1" vertex="1">
                    <mxGeometry x="130" y="607.5" width="150" height="110" as="geometry"/>
                </mxCell>
                <mxCell id="14" value="kata" style="ellipse;whiteSpace=wrap;html=1;fontSize=30;fillColor=#e1d5e7;strokeColor=#9673a6;fontStyle=1" parent="1" vertex="1">
                    <mxGeometry x="410" y="602.5" width="150" height="110" as="geometry"/>
                </mxCell>
                <mxCell id="15" value="cri-o" style="ellipse;whiteSpace=wrap;html=1;fontSize=30;fillColor=#e1d5e7;strokeColor=#9673a6;fontStyle=1" parent="1" vertex="1">
                    <mxGeometry x="690" y="602.5" width="150" height="110" as="geometry"/>
                </mxCell>
                <mxCell id="16" value="frakti" style="ellipse;whiteSpace=wrap;html=1;fontSize=30;fillColor=#e1d5e7;strokeColor=#9673a6;fontStyle=1" parent="1" vertex="1">
                    <mxGeometry x="1230" y="602.5" width="150" height="110" as="geometry"/>
                </mxCell>
                <mxCell id="18" value="Ceph" style="rhombus;whiteSpace=wrap;html=1;fontSize=30;fillColor=#fff2cc;strokeColor=#d6b656;fontStyle=1" parent="1" vertex="1">
                    <mxGeometry x="192" y="370" width="170" height="130" as="geometry"/>
                </mxCell>
                <mxCell id="25" value="NSX-T" style="rounded=0;whiteSpace=wrap;html=1;fontSize=30;fillColor=#fff2cc;strokeColor=#d6b656;fontStyle=1" parent="1" vertex="1">
                    <mxGeometry x="1410" y="800" width="200" height="120" as="geometry"/>
                </mxCell>
                <mxCell id="26" value="Cloud Providers" style="rounded=0;whiteSpace=wrap;html=1;fontSize=30;fontStyle=1;fillColor=#f5f5f5;fontColor=#333333;strokeColor=#666666;" parent="1" vertex="1">
                    <mxGeometry x="-410" y="960" width="400" height="200" as="geometry"/>
                </mxCell>
                <mxCell id="27" value="CNI Provider" style="rounded=0;whiteSpace=wrap;html=1;fontSize=30;fillColor=#f5f5f5;strokeColor=#666666;fontColor=#333333;fontStyle=1" parent="1" vertex="1">
                    <mxGeometry x="-410" y="760" width="400" height="200" as="geometry"/>
                </mxCell>
                <mxCell id="28" value="CRI Provider" style="rounded=0;whiteSpace=wrap;html=1;fontSize=30;fillColor=#f5f5f5;strokeColor=#666666;fontColor=#333333;fontStyle=1" parent="1" vertex="1">
                    <mxGeometry x="-410" y="560" width="400" height="200" as="geometry"/>
                </mxCell>
                <mxCell id="29" value="CSI Drivers" style="rounded=0;whiteSpace=wrap;html=1;fontSize=30;fillColor=#f5f5f5;strokeColor=#666666;fontColor=#333333;fontStyle=1" parent="1" vertex="1">
                    <mxGeometry x="-410" y="360" width="400" height="200" as="geometry"/>
                </mxCell>
                <mxCell id="30" value="Ingress Controller" style="rounded=0;whiteSpace=wrap;html=1;fontSize=30;fillColor=#f5f5f5;strokeColor=#666666;fontColor=#333333;fontStyle=1" parent="1" vertex="1">
                    <mxGeometry x="-410" y="160" width="400" height="200" as="geometry"/>
                </mxCell>
                <mxCell id="31" value="gvisor" style="ellipse;whiteSpace=wrap;html=1;fontSize=30;fillColor=#e1d5e7;strokeColor=#9673a6;fontStyle=1" parent="1" vertex="1">
                    <mxGeometry x="970" y="602.5" width="150" height="110" as="geometry"/>
                </mxCell>
                <mxCell id="32" value="crx" style="ellipse;whiteSpace=wrap;html=1;fontSize=30;fillColor=#e1d5e7;strokeColor=#9673a6;fontStyle=1" parent="1" vertex="1">
                    <mxGeometry x="1460" y="602.5" width="150" height="110" as="geometry"/>
                </mxCell>
                <mxCell id="33" value="Daemonset logging" style="rounded=0;whiteSpace=wrap;html=1;fontSize=30;fillColor=#f5f5f5;strokeColor=#666666;fontColor=#333333;fontStyle=1" parent="1" vertex="1">
                    <mxGeometry x="-410" y="-40" width="400" height="200" as="geometry"/>
                </mxCell>
                <mxCell id="34" value="EFS" style="rhombus;whiteSpace=wrap;html=1;fontSize=30;fillColor=#fff2cc;strokeColor=#d6b656;fontStyle=1" parent="1" vertex="1">
                    <mxGeometry x="497" y="370" width="170" height="130" as="geometry"/>
                </mxCell>
                <mxCell id="35" value="Azure" style="rhombus;whiteSpace=wrap;html=1;fontSize=30;fillColor=#fff2cc;strokeColor=#d6b656;fontStyle=1" parent="1" vertex="1">
                    <mxGeometry x="802" y="370" width="170" height="130" as="geometry"/>
                </mxCell>
                <mxCell id="36" value="GCE-PD" style="rhombus;whiteSpace=wrap;html=1;fontSize=30;fillColor=#fff2cc;strokeColor=#d6b656;fontStyle=1" parent="1" vertex="1">
                    <mxGeometry x="1072" y="370" width="170" height="130" as="geometry"/>
                </mxCell>
                <mxCell id="37" value="Longhorn" style="rhombus;whiteSpace=wrap;html=1;fontSize=30;fillColor=#fff2cc;strokeColor=#d6b656;fontStyle=1" parent="1" vertex="1">
                    <mxGeometry x="1342" y="370" width="170" height="130" as="geometry"/>
                </mxCell>
                <mxCell id="38" value="Nginx" style="triangle;whiteSpace=wrap;html=1;fontSize=30;direction=south;fontStyle=1;fillColor=#e1d5e7;strokeColor=#9673a6;" parent="1" vertex="1">
                    <mxGeometry x="398" y="190" width="178" height="120" as="geometry"/>
                </mxCell>
                <mxCell id="39" value="Istio" style="triangle;whiteSpace=wrap;html=1;fontSize=30;direction=south;fontStyle=1;fillColor=#e1d5e7;strokeColor=#9673a6;" parent="1" vertex="1">
                    <mxGeometry x="982" y="190" width="178" height="120" as="geometry"/>
                </mxCell>
                <mxCell id="40" value="Contour" style="triangle;whiteSpace=wrap;html=1;fontSize=30;direction=south;fontStyle=1;fillColor=#e1d5e7;strokeColor=#9673a6;" parent="1" vertex="1">
                    <mxGeometry x="692" y="190" width="178" height="120" as="geometry"/>
                </mxCell>
                <mxCell id="41" value="HAProxy" style="triangle;whiteSpace=wrap;html=1;fontSize=30;direction=south;fontStyle=1;fillColor=#e1d5e7;strokeColor=#9673a6;" parent="1" vertex="1">
                    <mxGeometry x="1272" y="190" width="178" height="120" as="geometry"/>
                </mxCell>
                <mxCell id="42" value="Traefik" style="triangle;whiteSpace=wrap;html=1;fontSize=30;direction=south;fontStyle=1;fillColor=#e1d5e7;strokeColor=#9673a6;" parent="1" vertex="1">
                    <mxGeometry x="120" y="190" width="178" height="120" as="geometry"/>
                </mxCell>
                <mxCell id="44" value="Fluentd" style="shape=cylinder3;whiteSpace=wrap;html=1;boundedLbl=1;backgroundOutline=1;size=15;fontSize=30;fillColor=#fff2cc;strokeColor=#d6b656;fontStyle=1" parent="1" vertex="1">
                    <mxGeometry x="260" width="161" height="110" as="geometry"/>
                </mxCell>
                <mxCell id="45" value="Fluent Bit" style="shape=cylinder3;whiteSpace=wrap;html=1;boundedLbl=1;backgroundOutline=1;size=15;fontSize=30;fillColor=#fff2cc;strokeColor=#d6b656;fontStyle=1" parent="1" vertex="1">
                    <mxGeometry x="548" width="161" height="110" as="geometry"/>
                </mxCell>
                <mxCell id="46" value="promtail" style="shape=cylinder3;whiteSpace=wrap;html=1;boundedLbl=1;backgroundOutline=1;size=15;fontSize=30;fillColor=#fff2cc;strokeColor=#d6b656;fontStyle=1" parent="1" vertex="1">
                    <mxGeometry x="840" width="161" height="110" as="geometry"/>
                </mxCell>
                <mxCell id="47" value="Sysdig" style="shape=cylinder3;whiteSpace=wrap;html=1;boundedLbl=1;backgroundOutline=1;size=15;fontSize=30;fillColor=#fff2cc;strokeColor=#d6b656;fontStyle=1" parent="1" vertex="1">
                    <mxGeometry x="1140" width="161" height="110" as="geometry"/>
                </mxCell>
                <mxCell id="48" value="" style="endArrow=classic;html=1;fontSize=30;exitX=0.5;exitY=0;exitDx=0;exitDy=0;entryX=0.5;entryY=1;entryDx=0;entryDy=0;strokeWidth=5;fillColor=#d5e8d4;strokeColor=#82b366;" parent="1" source="5" target="9" edge="1">
                    <mxGeometry width="50" height="50" relative="1" as="geometry">
                        <mxPoint x="800" y="1050" as="sourcePoint"/>
                        <mxPoint x="850" y="1000" as="targetPoint"/>
                    </mxGeometry>
                </mxCell>
                <mxCell id="49" value="" style="endArrow=classic;html=1;fontSize=30;exitX=0.5;exitY=0;exitDx=0;exitDy=0;entryX=0.5;entryY=1;entryDx=0;entryDy=0;strokeWidth=5;fillColor=#d5e8d4;strokeColor=#82b366;" parent="1" source="9" target="13" edge="1">
                    <mxGeometry width="50" height="50" relative="1" as="geometry">
                        <mxPoint x="390" y="1010" as="sourcePoint"/>
                        <mxPoint x="550.0000000000009" y="930" as="targetPoint"/>
                    </mxGeometry>
                </mxCell>
                <mxCell id="50" value="" style="endArrow=classic;html=1;fontSize=30;exitX=0.5;exitY=0;exitDx=0;exitDy=0;entryX=0.5;entryY=1;entryDx=0;entryDy=0;strokeWidth=5;fillColor=#d5e8d4;strokeColor=#82b366;" parent="1" source="13" target="34" edge="1">
                    <mxGeometry width="50" height="50" relative="1" as="geometry">
                        <mxPoint x="550.0000000000009" y="810" as="sourcePoint"/>
                        <mxPoint x="215" y="727.5" as="targetPoint"/>
                    </mxGeometry>
                </mxCell>
                <mxCell id="51" value="" style="endArrow=classic;html=1;fontSize=30;exitX=0.5;exitY=0;exitDx=0;exitDy=0;entryX=1;entryY=0.5;entryDx=0;entryDy=0;strokeWidth=5;fillColor=#d5e8d4;strokeColor=#82b366;" parent="1" source="34" target="40" edge="1">
                    <mxGeometry width="50" height="50" relative="1" as="geometry">
                        <mxPoint x="215" y="617.5" as="sourcePoint"/>
                        <mxPoint x="592" y="510" as="targetPoint"/>
                    </mxGeometry>
                </mxCell>
                <mxCell id="52" value="" style="endArrow=classic;html=1;fontSize=30;exitX=0;exitY=0.5;exitDx=0;exitDy=0;entryX=0.5;entryY=1;entryDx=0;entryDy=0;strokeWidth=5;fillColor=#d5e8d4;strokeColor=#82b366;entryPerimeter=0;" parent="1" source="40" target="45" edge="1">
                    <mxGeometry width="50" height="50" relative="1" as="geometry">
                        <mxPoint x="592" y="380" as="sourcePoint"/>
                        <mxPoint x="791" y="320" as="targetPoint"/>
                    </mxGeometry>
                </mxCell>
                <mxCell id="53" value="" style="endArrow=classic;html=1;fontSize=30;exitX=0.5;exitY=0;exitDx=0;exitDy=0;strokeWidth=5;fillColor=#d5e8d4;strokeColor=#82b366;exitPerimeter=0;" parent="1" source="45" edge="1">
                    <mxGeometry width="50" height="50" relative="1" as="geometry">
                        <mxPoint x="791" y="200" as="sourcePoint"/>
                        <mxPoint x="290" y="-130" as="targetPoint"/>
                    </mxGeometry>
                </mxCell>
                <mxCell id="54" value="" style="endArrow=classic;html=1;fontSize=30;exitX=0.5;exitY=0;exitDx=0;exitDy=0;strokeWidth=5;fillColor=#dae8fc;strokeColor=#6c8ebf;entryX=0.5;entryY=1;entryDx=0;entryDy=0;" parent="1" source="6" target="10" edge="1">
                    <mxGeometry width="50" height="50" relative="1" as="geometry">
                        <mxPoint x="638.5" y="10" as="sourcePoint"/>
                        <mxPoint x="300" y="-120" as="targetPoint"/>
                    </mxGeometry>
                </mxCell>
                <mxCell id="55" value="" style="endArrow=classic;html=1;fontSize=30;exitX=0.5;exitY=0;exitDx=0;exitDy=0;strokeWidth=5;fillColor=#dae8fc;strokeColor=#6c8ebf;entryX=0.5;entryY=1;entryDx=0;entryDy=0;" parent="1" source="10" target="31" edge="1">
                    <mxGeometry width="50" height="50" relative="1" as="geometry">
                        <mxPoint x="1350" y="1010" as="sourcePoint"/>
                        <mxPoint x="862" y="930" as="targetPoint"/>
                    </mxGeometry>
                </mxCell>
                <mxCell id="56" value="" style="endArrow=classic;html=1;fontSize=30;exitX=0.5;exitY=0;exitDx=0;exitDy=0;strokeWidth=5;fillColor=#dae8fc;strokeColor=#6c8ebf;entryX=0.5;entryY=1;entryDx=0;entryDy=0;" parent="1" source="31" target="36" edge="1">
                    <mxGeometry width="50" height="50" relative="1" as="geometry">
                        <mxPoint x="862" y="810" as="sourcePoint"/>
                        <mxPoint x="920" y="520" as="targetPoint"/>
                    </mxGeometry>
                </mxCell>
                <mxCell id="57" value="" style="endArrow=classic;html=1;fontSize=30;exitX=0.5;exitY=0;exitDx=0;exitDy=0;strokeWidth=5;fillColor=#dae8fc;strokeColor=#6c8ebf;entryX=1;entryY=0.5;entryDx=0;entryDy=0;" parent="1" source="36" target="39" edge="1">
                    <mxGeometry width="50" height="50" relative="1" as="geometry">
                        <mxPoint x="1055" y="612.5" as="sourcePoint"/>
                        <mxPoint x="1167.000000000001" y="510" as="targetPoint"/>
                    </mxGeometry>
                </mxCell>
                <mxCell id="58" value="" style="endArrow=classic;html=1;fontSize=30;exitX=0;exitY=0.5;exitDx=0;exitDy=0;strokeWidth=5;fillColor=#dae8fc;strokeColor=#6c8ebf;entryX=0.5;entryY=1;entryDx=0;entryDy=0;entryPerimeter=0;" parent="1" source="39" target="45" edge="1">
                    <mxGeometry width="50" height="50" relative="1" as="geometry">
                        <mxPoint x="1167.000000000001" y="380" as="sourcePoint"/>
                        <mxPoint x="1081.000000000001" y="320" as="targetPoint"/>
                    </mxGeometry>
                </mxCell>
                <mxCell id="59" value="" style="endArrow=classic;html=1;fontSize=30;exitX=0.5;exitY=0;exitDx=0;exitDy=0;strokeWidth=5;fillColor=#dae8fc;strokeColor=#6c8ebf;entryX=0.5;entryY=1;entryDx=0;entryDy=0;exitPerimeter=0;" parent="1" source="45" target="3" edge="1">
                    <mxGeometry width="50" height="50" relative="1" as="geometry">
                        <mxPoint x="1081.000000000001" y="200" as="sourcePoint"/>
                        <mxPoint x="638.5" y="120" as="targetPoint"/>
                    </mxGeometry>
                </mxCell>
                <mxCell id="60" value="" style="endArrow=classic;html=1;fontSize=30;exitX=0.5;exitY=0;exitDx=0;exitDy=0;strokeWidth=5;fillColor=#f8cecc;strokeColor=#b85450;entryX=0.5;entryY=1;entryDx=0;entryDy=0;exitPerimeter=0;" parent="1" source="46" target="4" edge="1">
                    <mxGeometry width="50" height="50" relative="1" as="geometry">
                        <mxPoint x="638.5" y="10" as="sourcePoint"/>
                        <mxPoint x="844" y="-115" as="targetPoint"/>
                    </mxGeometry>
                </mxCell>
                <mxCell id="61" value="" style="endArrow=classic;html=1;fontSize=30;exitX=0;exitY=0.5;exitDx=0;exitDy=0;strokeWidth=5;fillColor=#f8cecc;strokeColor=#b85450;entryX=0.5;entryY=1;entryDx=0;entryDy=0;entryPerimeter=0;" parent="1" source="41" target="46" edge="1">
                    <mxGeometry width="50" height="50" relative="1" as="geometry">
                        <mxPoint x="930.5" y="10" as="sourcePoint"/>
                        <mxPoint x="1391.999999999999" y="-110" as="targetPoint"/>
                    </mxGeometry>
                </mxCell>
                <mxCell id="62" value="" style="endArrow=classic;html=1;fontSize=30;exitX=0.5;exitY=0;exitDx=0;exitDy=0;strokeWidth=5;fillColor=#f8cecc;strokeColor=#b85450;entryX=1;entryY=0.5;entryDx=0;entryDy=0;" parent="1" source="37" target="41" edge="1">
                    <mxGeometry width="50" height="50" relative="1" as="geometry">
                        <mxPoint x="1371" y="200" as="sourcePoint"/>
                        <mxPoint x="930.5" y="120" as="targetPoint"/>
                    </mxGeometry>
                </mxCell>
                <mxCell id="63" value="" style="endArrow=classic;html=1;fontSize=30;exitX=0.5;exitY=0;exitDx=0;exitDy=0;strokeWidth=5;fillColor=#f8cecc;strokeColor=#b85450;entryX=0.5;entryY=1;entryDx=0;entryDy=0;" parent="1" source="16" target="37" edge="1">
                    <mxGeometry width="50" height="50" relative="1" as="geometry">
                        <mxPoint x="1436.999999999999" y="380" as="sourcePoint"/>
                        <mxPoint x="1371" y="320" as="targetPoint"/>
                    </mxGeometry>
                </mxCell>
                <mxCell id="64" value="" style="endArrow=classic;html=1;fontSize=30;exitX=0.5;exitY=0;exitDx=0;exitDy=0;strokeWidth=5;fillColor=#f8cecc;strokeColor=#b85450;entryX=0.5;entryY=1;entryDx=0;entryDy=0;" parent="1" source="11" target="16" edge="1">
                    <mxGeometry width="50" height="50" relative="1" as="geometry">
                        <mxPoint x="1315" y="612.5" as="sourcePoint"/>
                        <mxPoint x="1436.999999999999" y="510" as="targetPoint"/>
                    </mxGeometry>
                </mxCell>
                <mxCell id="65" value="" style="endArrow=classic;html=1;fontSize=30;exitX=0.5;exitY=0;exitDx=0;exitDy=0;strokeWidth=5;fillColor=#f8cecc;strokeColor=#b85450;entryX=0.5;entryY=1;entryDx=0;entryDy=0;" parent="1" source="6" target="11" edge="1">
                    <mxGeometry width="50" height="50" relative="1" as="geometry">
                        <mxPoint x="1190" y="810" as="sourcePoint"/>
                        <mxPoint x="1315" y="722.5" as="targetPoint"/>
                    </mxGeometry>
                </mxCell>
                <mxCell id="66" value="" style="shape=flexArrow;endArrow=classic;html=1;fillColor=#f8cecc;strokeColor=#b85450;" edge="1" parent="1">
                    <mxGeometry width="50" height="50" relative="1" as="geometry">
                        <mxPoint x="-212" y="-90" as="sourcePoint"/>
                        <mxPoint x="-212" y="-380" as="targetPoint"/>
                    </mxGeometry>
                </mxCell>
            </root>
        </mxGraphModel>
    </diagram>
</mxfile>